<svg id="external-link" xmlns="http://www.w3.org/2000/svg" width="15.18" height="15.18" viewBox="0 0 15.18 15.18">
  <path id="Path_61" data-name="Path 61" d="M134.144,0h-5.22a.936.936,0,0,0,0,1.871h2.961L126.946,6.81a.936.936,0,1,0,1.323,1.323l4.939-4.939V6.155a.936.936,0,1,0,1.871,0V.936A.937.937,0,0,0,134.144,0Z" transform="translate(-119.899)" fill="#fff"/>
  <path id="Path_62" data-name="Path 62" d="M10.754,63.539H1.6v-9.15H8.486l1.6-1.6H.8a.8.8,0,0,0-.8.8V64.341a.8.8,0,0,0,.8.8H11.556a.8.8,0,0,0,.8-.8V55.053l-1.6,1.6Z" transform="translate(0 -49.963)" fill="#fff"/>
</svg>
