<svg xmlns="http://www.w3.org/2000/svg" width="107.9" height="88.088" viewBox="0 0 107.9 88.088">
  <g id="Group_177" data-name="Group 177" transform="translate(-140 -444.777)">
    <g id="theater" transform="translate(140 400.709)">
      <g id="Group_102" data-name="Group 102" transform="translate(57.653 64.369)">
        <g id="Group_101" data-name="Group 101" transform="translate(0 0)">
          <path id="Path_73" data-name="Path 73" d="M272.682,135.083l-1.169-.293a13.729,13.729,0,0,0-14.77,5.735,1.8,1.8,0,0,0,3,1.987,10.145,10.145,0,0,1,10.9-4.233l1.171.293a1.8,1.8,0,0,0,.874-3.489Z" transform="translate(-256.472 -134.38)" fill="#ffb936"/>
        </g>
      </g>
      <g id="Group_104" data-name="Group 104" transform="translate(62.288 85.712)">
        <g id="Group_103" data-name="Group 103">
          <path id="Path_74" data-name="Path 74" d="M307.47,229.417a1.8,1.8,0,0,0-1.379.1h.005a29.515,29.515,0,0,1-26.392,0,1.8,1.8,0,0,0-2.518,2.172l1.717,5.172a14.73,14.73,0,0,0,27.989,0l1.716-5.172A1.8,1.8,0,0,0,307.47,229.417Zm-3.988,6.315a11.135,11.135,0,0,1-21.163,0l-.462-1.394a33.233,33.233,0,0,0,22.085,0Z" transform="translate(-277.095 -229.325)" fill="#ffb936"/>
        </g>
      </g>
      <g id="Group_106" data-name="Group 106" transform="translate(83.406 65.029)">
        <g id="Group_105" data-name="Group 105">
          <path id="Path_75" data-name="Path 75" d="M388.285,143.539c-.018-.03-.038-.059-.058-.088a13.735,13.735,0,0,0-14.766-5.729l-1.173.295a1.8,1.8,0,0,0,.874,3.482l1.174-.293a10.143,10.143,0,0,1,10.894,4.233,1.8,1.8,0,0,0,3.054-1.9Z" transform="translate(-371.036 -137.313)" fill="#ffb936"/>
        </g>
      </g>
      <g id="Group_108" data-name="Group 108" transform="translate(0 44.068)">
        <g id="Group_107" data-name="Group 107" transform="translate(0 0)">
          <path id="Path_76" data-name="Path 76" d="M106.671,48.7a90.533,90.533,0,0,0-57.156,0,1.8,1.8,0,0,0-1.226,1.7V63.8a86.274,86.274,0,0,1-45.92-2.444A1.8,1.8,0,0,0,0,63.057v26.4a51.253,51.253,0,0,0,17.07,38.189,17.7,17.7,0,0,0,22.905.6l.55-.442a50.636,50.636,0,0,0,16.158-22.855,50.715,50.715,0,0,0,8.675,10.114,17.7,17.7,0,0,0,22.9.6l.55-.442a50.929,50.929,0,0,0,19.087-39.9V50.4A1.8,1.8,0,0,0,106.671,48.7ZM38.27,125l-.539.442a14.113,14.113,0,0,1-18.266-.48A47.645,47.645,0,0,1,3.6,89.458V65.518A89.926,89.926,0,0,0,48.289,67.5v9.38q0,1.577.1,3.154c.022.349.068.694.1,1.043.058.7.111,1.4.2,2.093.054.423.131.84.194,1.259.094.619.18,1.239.295,1.854.083.446.192.888.288,1.333.126.583.243,1.167.388,1.744.117.46.257.915.385,1.372.156.554.306,1.11.48,1.658.147.464.317.921.477,1.379.18.539.369,1.07.574,1.6.18.46.376.912.566,1.365.218.518.43,1.036.664,1.545.209.455.437.9.66,1.351.192.388.36.784.57,1.169A47.172,47.172,0,0,1,38.27,125ZM104.3,75.314a47.37,47.37,0,0,1-17.744,37.1l-.55.442a14.112,14.112,0,0,1-18.255-.48A47.347,47.347,0,0,1,57.726,99.706a47.92,47.92,0,0,1-5.467-16.9,47.4,47.4,0,0,1-.374-5.934V51.707a86.96,86.96,0,0,1,52.418,0Z" transform="translate(0 -44.068)" fill="#ffb936"/>
        </g>
      </g>
      <g id="Group_110" data-name="Group 110" transform="translate(7.193 80.003)">
        <g id="Group_109" data-name="Group 109" transform="translate(0 0)">
          <path id="Path_77" data-name="Path 77" d="M46.462,204.226a1.8,1.8,0,0,0-2.494.505l-.78,1.182a11.252,11.252,0,0,1-9.389,5.05,1.8,1.8,0,1,0,0,3.6A14.843,14.843,0,0,0,46.185,207.9l.782-1.182A1.8,1.8,0,0,0,46.462,204.226Z" transform="translate(-32 -203.926)" fill="#ffb936"/>
        </g>
      </g>
      <g id="Group_112" data-name="Group 112" transform="translate(15.016 103.369)">
        <g id="Group_111" data-name="Group 111">
          <path id="Path_78" data-name="Path 78" d="M92.162,311.32h-.009a20.2,20.2,0,0,0-22.571,0,6.283,6.283,0,0,0,6.289,10.853,11.2,11.2,0,0,1,10,0,6.283,6.283,0,0,0,6.294-10.853Zm-1.268,6.728a2.67,2.67,0,0,1-3.417.912,14.8,14.8,0,0,0-13.228,0,2.665,2.665,0,0,1-3.417-.912,2.7,2.7,0,0,1,.743-3.739,16.62,16.62,0,0,1,18.566,0A2.7,2.7,0,0,1,90.895,318.048Z" transform="translate(-66.798 -307.874)" fill="#ffb936"/>
        </g>
      </g>
      <g id="Group_114" data-name="Group 114" transform="translate(30.532 80.003)">
        <g id="Group_113" data-name="Group 113" transform="translate(0 0)">
          <path id="Path_79" data-name="Path 79" d="M154.5,220.379l-3.512-8.193-.018-.031a1.784,1.784,0,0,0-1.676-1.191,11.246,11.246,0,0,1-9.387-5.05l-.784-1.182a1.8,1.8,0,1,0-3,1.989l.784,1.182a14.825,14.825,0,0,0,9.86,6.416l-2.6,6.059a5.62,5.62,0,1,0,10.33,0Zm-3.476,3.332a2.075,2.075,0,0,1-3.375,0,1.992,1.992,0,0,1-.18-1.91l1.859-4.339,1.859,4.339A1.987,1.987,0,0,1,151.024,223.711Z" transform="translate(-135.825 -203.929)" fill="#ffb936"/>
        </g>
      </g>
    </g>
  </g>
</svg>
