<svg xmlns="http://www.w3.org/2000/svg" width="113.9" height="113.653" viewBox="0 0 113.9 113.653">
  <g id="Group_168" data-name="Group 168" transform="translate(-135 -778.323)">
    <path id="Path_104" data-name="Path 104" d="M296.989.012a5.779,5.779,0,1,0,5.779,5.779A5.779,5.779,0,0,0,296.989.012Zm0,7.706a1.926,1.926,0,1,1,1.926-1.926A1.927,1.927,0,0,1,296.989,7.717Zm0,0" transform="translate(-86.087 778.312)" fill="#ffb936"/>
    <path id="Path_105" data-name="Path 105" d="M212.846,40.012a9.632,9.632,0,1,0,9.632,9.631A9.631,9.631,0,0,0,212.846,40.012Zm0,15.41a5.779,5.779,0,1,1,5.779-5.779A5.78,5.78,0,0,1,212.846,55.422Zm0,0" transform="translate(-19.28 747.944)" fill="#ffb936"/>
    <path id="Path_106" data-name="Path 106" d="M106.924,56.008a7.706,7.706,0,1,0,7.7,7.706A7.706,7.706,0,0,0,106.924,56.008Zm0,11.559a3.853,3.853,0,1,1,3.852-3.853A3.852,3.852,0,0,1,106.924,67.566Zm0,0" transform="translate(59.673 735.8)" fill="#ffb936"/>
    <path id="Path_107" data-name="Path 107" d="M65,.012A5.779,5.779,0,1,0,70.78,5.791,5.779,5.779,0,0,0,65,.012Zm0,7.706a1.926,1.926,0,1,1,1.926-1.926A1.927,1.927,0,0,1,65,7.717Zm0,0" transform="translate(90.038 778.312)" fill="#ffb936"/>
    <path id="Path_108" data-name="Path 108" d="M277.418,253.1l3.645-1.24,12.46,36.619-3.646,1.24Zm0,0" transform="translate(-75.615 587.11)" fill="#ffb936"/>
    <path id="Path_109" data-name="Path 109" d="M236.492,266.975l3.645-1.241,12.46,36.619-3.646,1.241Zm0,0" transform="translate(-44.544 576.576)" fill="#ffb936"/>
    <path id="Path_110" data-name="Path 110" d="M318.34,239.146l3.646-1.24,12.455,36.619-3.645,1.24Zm0,0" transform="translate(-106.683 597.703)" fill="#ffb936"/>
    <path id="Path_111" data-name="Path 111" d="M113.322,162.792l-9.1-26.762a10.85,10.85,0,0,0-13.766-6.78h0l-5.221,1.776-.337-.993a13.824,13.824,0,0,0-24.079-3.943,10.688,10.688,0,0,0-8.875,3.66,9.377,9.377,0,0,0-1.271-.32,10.866,10.866,0,0,0-4.292.116A13.825,13.825,0,0,0,23.2,137.153l-.182,1.035-5.432-.95a10.852,10.852,0,0,0-12.559,8.818v0L.162,173.9a10.867,10.867,0,0,0,8.822,12.56l5.43.949-.173.99a4.9,4.9,0,0,0,.277,9.6l41.03,7.175a4.8,4.8,0,0,0,.844.075,4.9,4.9,0,0,0,4.443-2.874,4.689,4.689,0,0,0,2.583-.143l39.438-13.417a4.9,4.9,0,0,0-1.208-9.53l-.324-.949,5.218-1.776A10.867,10.867,0,0,0,113.322,162.792ZM81.875,133.1l.675,1.988L69.3,139.6l-.682-1.988Zm-32.056,1.469a6.89,6.89,0,0,1,2.525-.359,1.908,1.908,0,0,0,1.732-.925l.007,0a6.973,6.973,0,0,1,7.293-3.24,1.927,1.927,0,0,0,2-.869,9.855,9.855,0,0,1,5.212-4.131,9.983,9.983,0,0,1,11.853,4.469l-14.894,5.068a1.927,1.927,0,0,0-1.2,2.445l2.874,8.451a2.537,2.537,0,0,1-4.8,1.633l-.963-2.816a1.926,1.926,0,1,0-3.685,1.123c.012.04.025.08.04.119a2.537,2.537,0,0,1-4.8,1.629l-1.926-5.634a1.927,1.927,0,0,0-2.443-1.2l-3.523,1.2A6.985,6.985,0,0,1,49.819,134.567ZM48.74,146.6l-1.988.675-.673-1.988,1.986-.674Zm-10.2-16.89.006,0a9.863,9.863,0,0,1,5.8,3.274,1.91,1.91,0,0,0,.339.289,10.918,10.918,0,0,0-3.1,5.2l-14.062-2.518A9.985,9.985,0,0,1,38.544,129.706ZM26.666,139.732,41.3,142.348a10.661,10.661,0,0,0,.451,2.142l-15.445-2.7ZM9.638,182.666a7.011,7.011,0,0,1-5.681-8.1l4.872-27.845a7,7,0,0,1,8.091-5.691l.011,0,5.428.948L22,144.047l-3.965-.693a6.39,6.39,0,0,0-7.4,5.192s0,.006,0,.008L6.28,173.468a6.394,6.394,0,0,0,5.2,7.4l3.965.693-.36,2.068Zm11.7-34.823L16.1,177.754l-3.968-.693a2.536,2.536,0,0,1-2.06-2.935h0l4.357-24.915a2.545,2.545,0,0,1,2.936-2.062Zm36.1,52.686a1.05,1.05,0,0,1-1.216.852v0l-41.031-7.178a1.05,1.05,0,1,1,.291-2.079c.024,0,.048.008.071.012a1.927,1.927,0,0,0,2.229-1.566l7.871-45,17.51,3.063L56.58,188.108l-1.57,8.975a1.925,1.925,0,0,0,1.568,2.228A1.051,1.051,0,0,1,57.431,200.528Zm44.842-16.689a1.047,1.047,0,0,1-.652,1.33h0L62.182,198.589a1.05,1.05,0,0,1-.68-1.988,1.926,1.926,0,0,0,1.2-2.444h0L47.994,150.909l2.3-.781a6.367,6.367,0,0,0,9.849.522,6.392,6.392,0,0,0,10.728-6.414l-.339-.992,13.256-4.511L98.5,181.98a1.928,1.928,0,0,0,2.444,1.206l0,0A1.05,1.05,0,0,1,102.272,183.84ZM88.392,140.3l3.81-1.3a2.536,2.536,0,0,1,3.218,1.582.041.041,0,0,1,0,0l8.147,23.943a2.54,2.54,0,0,1-1.585,3.219l-3.811,1.3Zm16.914,32.605-5.218,1.776L99.4,172.7l3.811-1.3a6.4,6.4,0,0,0,3.99-8.107l-8.149-23.945a6.4,6.4,0,0,0-8.106-3.991l-3.81,1.3-.674-1.986L91.7,132.9a7,7,0,0,1,8.884,4.373l9.1,26.756A7.009,7.009,0,0,1,105.306,172.91Zm0,0" transform="translate(135 686.724)" fill="#ffb936"/>
    <path id="Path_112" data-name="Path 112" d="M142.125,309.186l6.664-38.1,3.8.664-6.665,38.1Zm0,0" transform="translate(27.099 572.513)" fill="#ffb936"/>
    <path id="Path_113" data-name="Path 113" d="M184.793,365.359l3.736-22.66,3.8.626-3.737,22.66Zm0,0" transform="translate(-5.294 518.144)" fill="#ffb936"/>
    <path id="Path_114" data-name="Path 114" d="M99.605,301.69l6.664-38.1,3.8.663-6.665,38.1Zm0,0" transform="translate(59.38 578.207)" fill="#ffb936"/>
  </g>
</svg>
