<svg id="Layer_2" data-name="Layer 2" xmlns="http://www.w3.org/2000/svg" width="107.9" height="107.9" viewBox="0 0 107.9 107.9">
  <path id="Path_100" data-name="Path 100" d="M18.364,53.32H94.841a1.475,1.475,0,0,0,1.475-1.475V1.475A1.475,1.475,0,0,0,94.84,0H18.364a1.475,1.475,0,0,0-1.475,1.475V51.843a1.475,1.475,0,0,0,1.475,1.478ZM19.839,2.95H93.366V50.37H19.839Z" transform="translate(-2.652 0)" fill="#ffb936"/>
  <path id="Path_101" data-name="Path 101" d="M89.842,7.287H25.651a1.475,1.475,0,0,0-1.475,1.475V46.847a1.475,1.475,0,0,0,1.475,1.475h64.19a1.475,1.475,0,0,0,1.475-1.475V8.762a1.475,1.475,0,0,0-1.475-1.475ZM70.689,31.872l6.064-2.488,11.613,4.074v3.589ZM88.366,10.237V30.33L77.2,26.413a1.489,1.489,0,0,0-1.049.027l-10,4.105L49.331,25.621a1.48,1.48,0,0,0-.973.051L27.126,34.357V10.237Zm0,35.134H27.126V37.549L49,28.6,88.364,40.121Z" transform="translate(-3.796 -1.144)" fill="#ffb936"/>
  <path id="Path_102" data-name="Path 102" d="M69.942,27.949a5.506,5.506,0,1,0-5.505-5.506,5.506,5.506,0,0,0,5.505,5.506Zm0-8.061a2.556,2.556,0,1,1-2.555,2.555,2.556,2.556,0,0,1,2.555-2.555Z" transform="translate(-10.119 -2.659)" fill="#ffb936"/>
  <path id="Path_103" data-name="Path 103" d="M106.425,85.243H99.774a6.771,6.771,0,0,0,1.207-3.863v-.949a6.814,6.814,0,0,0-13.628,0v.947a6.771,6.771,0,0,0,1.207,3.863H81.909a1.475,1.475,0,0,0-1.475,1.475v5.62a1.475,1.475,0,0,0,1.475,1.475h5.444v2.2a101.936,101.936,0,0,1-33.4,6.1,101.914,101.914,0,0,1-33.4-6.1v-2.2h5.444a1.475,1.475,0,0,0,1.475-1.475v-5.62a1.475,1.475,0,0,0-1.475-1.475H19.34a6.772,6.772,0,0,0,1.207-3.863v-.949a6.814,6.814,0,0,0-13.628,0v.947a6.772,6.772,0,0,0,1.207,3.866H1.475A1.475,1.475,0,0,0,0,86.718v5.62a1.475,1.475,0,0,0,1.475,1.475H6.919v24.171a1.475,1.475,0,0,0,1.475,1.475H19.072a1.475,1.475,0,0,0,1.475-1.475v-11.7a109.309,109.309,0,0,0,33.4,5.527,109.318,109.318,0,0,0,33.4-5.527v11.7a1.475,1.475,0,0,0,1.475,1.475H99.506a1.475,1.475,0,0,0,1.475-1.475V93.814h5.444a1.475,1.475,0,0,0,1.475-1.475v-5.62a1.475,1.475,0,0,0-1.475-1.475ZM90.3,81.38v-.949a3.864,3.864,0,0,1,7.727,0v.947a3.864,3.864,0,0,1-7.727,0Zm-80.433,0v-.949a3.864,3.864,0,0,1,7.727,0v.947a3.864,3.864,0,0,1-7.727,0ZM2.95,88.194H24.516v2.67H2.95ZM17.6,116.51H9.869v-22.7H17.6Zm36.353-7.65a106.727,106.727,0,0,1-33.4-5.682V99.145a104.653,104.653,0,0,0,33.4,5.922,104.653,104.653,0,0,0,33.4-5.919v4.03a106.741,106.741,0,0,1-33.4,5.682Zm44.08,7.65H90.3v-22.7H98.03Zm6.919-25.646H83.384v-2.67H104.95Z" transform="translate(0 -11.56)" fill="#ffb936"/>
</svg>
