<svg xmlns="http://www.w3.org/2000/svg" width="27.429" height="24"><path data-name="Path 105" d="M10.285 11.428a5.714 5.714 0 115.714-5.714 5.721 5.721 0 01-5.714 5.714zm0-9.714a4 4 0 104 4 4 4 0 00-4-4zm0 0"/><path data-name="Path 106" d="M19.714 24H.857A.857.857 0 010 23.142v-4a5.435 5.435 0 015.429-5.429h9.714a5.435 5.435 0 015.429 5.429v4a.857.857 0 01-.858.858zm-18-1.714h17.143v-3.143a3.719 3.719 0 00-3.714-3.714H5.429a3.719 3.719 0 00-3.714 3.714zm0 0"/><path data-name="Path 107" d="M26.571 11.714h-9.714a.857.857 0 010-1.714h9.714a.857.857 0 010 1.714zm0 0"/><path data-name="Path 108" d="M22 16.286a.858.858 0 01-.606-1.464l3.966-3.966-3.966-3.966a.857.857 0 111.213-1.212l4.571 4.571a.858.858 0 010 1.213l-4.571 4.571a.852.852 0 01-.607.253zm0 0"/></svg>