<svg xmlns="http://www.w3.org/2000/svg" width="16.849" height="16.849" viewBox="0 0 16.849 16.849">
  <g id="Group_178" data-name="Group 178" transform="translate(-33 -821)">
    <path id="two-lines" d="M10.873,6.158a.731.731,0,0,1,.753-.709.741.741,0,0,1,.764.709V20.59a.741.741,0,0,1-.764.709.731.731,0,0,1-.753-.709Z" transform="translate(29.831 816.05)" fill="#ffb936" stroke="#ffb936" stroke-width="1"/>
    <path id="two-lines-2" data-name="two-lines" d="M0,.709A.731.731,0,0,1,.753,0a.741.741,0,0,1,.764.709V15.14a.741.741,0,0,1-.764.709A.731.731,0,0,1,0,15.14Z" transform="translate(49.349 828.704) rotate(90)" fill="#ffb936" stroke="#ffb936" stroke-width="1"/>
  </g>
</svg>
