<svg xmlns="http://www.w3.org/2000/svg" width="20.96" height="26.745"><path d="M9.651.072a8.513 8.513 0 017.3 9.5 8.661 8.661 0 01-.706 2.484 8.785 8.785 0 01-1.093 1.76l5.462 9.019v.01a2.409 2.409 0 01.28 1.827 2.474 2.474 0 01-1.1 1.5h-.01l-.348.222h-.01a2.439 2.439 0 01-1.837.28 2.474 2.474 0 01-1.5-1.1v-.01l-5.355-8.845a9.238 9.238 0 01-1.363.252 8.714 8.714 0 01-1.875-.019.56.56 0 01-.125-.019A8.5 8.5 0 01.06 7.5a.56.56 0 01.019-.125A8.5 8.5 0 019.514.063c.048 0 .086.01.135.01zm1.334 12.055a.678.678 0 11.763 1.122 5.768 5.768 0 01-1.895.841 5.747 5.747 0 01-5.085-1.218 5.792 5.792 0 01-1.788-2.784.684.684 0 011.315-.377 4.385 4.385 0 001.363 2.127 4.451 4.451 0 003.877.938 4.385 4.385 0 001.45-.649zm3.166-7.995a7.108 7.108 0 00-4.746-2.716A7.154 7.154 0 001.413 7.6a7.154 7.154 0 006.187 8h.01a7.047 7.047 0 001.624.019 7.383 7.383 0 001.585-.348.7.7 0 01.8.29l5.6 9.251a.555.555 0 01.058.107 1.08 1.08 0 00.638.435 1.061 1.061 0 00.764-.1c.038-.019.068-.038.107-.058l.242-.155c.038-.019.068-.038.107-.058a1.088 1.088 0 00.338-1.4c-.019-.029-.038-.068-.058-.1l-5.645-9.319c-.01-.019-.019-.029-.019-.038l-.01-.01v-.01a.685.685 0 01.068-.812 7.172 7.172 0 001.2-1.808 7.168 7.168 0 00-.858-7.354z" fill="#1a1a1a"/></svg>