<svg xmlns="http://www.w3.org/2000/svg" width="18.888" height="24.1"><path d="M8.695.065a7.671 7.671 0 0 1 6.577 8.563 7.8 7.8 0 0 1-.636 2.239 7.916 7.916 0 0 1-.985 1.586l4.922 8.128v.009a2.171 2.171 0 0 1 .252 1.646 2.229 2.229 0 0 1-.993 1.35h-.009l-.313.2h-.009a2.2 2.2 0 0 1-1.655.252 2.229 2.229 0 0 1-1.35-.993v-.009L9.67 15.065a8.324 8.324 0 0 1-1.228.227 7.852 7.852 0 0 1-1.69-.018.5.5 0 0 1-.113-.018A7.661 7.661 0 0 1 .051 6.755a.5.5 0 0 1 .018-.113 7.66 7.66 0 0 1 8.5-6.585c.043 0 .078.009.122.009Zm1.2 10.863a.611.611 0 1 1 .688 1.011 5.2 5.2 0 0 1-1.707.758 5.179 5.179 0 0 1-4.582-1.1 5.219 5.219 0 0 1-1.61-2.506.616.616 0 0 1 1.185-.34 3.951 3.951 0 0 0 1.228 1.916 4.011 4.011 0 0 0 3.493.845 3.951 3.951 0 0 0 1.307-.584Zm2.857-7.2A6.405 6.405 0 0 0 8.475 1.28a6.446 6.446 0 0 0-7.2 5.575 6.446 6.446 0 0 0 5.575 7.2h.009a6.35 6.35 0 0 0 1.464.018 6.653 6.653 0 0 0 1.429-.313.633.633 0 0 1 .723.261l5.044 8.337a.5.5 0 0 1 .052.1.973.973 0 0 0 .575.392.956.956 0 0 0 .688-.087c.035-.018.061-.035.1-.052l.218-.139c.035-.018.061-.035.1-.052a.981.981 0 0 0 .3-1.263c-.018-.026-.035-.061-.052-.087l-5.087-8.4c-.009-.018-.018-.026-.018-.035l-.009-.009v-.009a.617.617 0 0 1 .061-.732 6.463 6.463 0 0 0 1.08-1.629 6.459 6.459 0 0 0-.776-6.632Z" fill="#fff"/></svg>