<?xml version="1.0" encoding="UTF-8"?>
<!-- Generator: Adobe Illustrator 25.1.0, SVG Export Plug-In . SVG Version: 6.00 Build 0)  -->
<svg version="1.1" id="Ebene_1" xmlns="http://www.w3.org/2000/svg" xmlns:xlink="http://www.w3.org/1999/xlink" x="0px" y="0px" viewBox="0 0 1280 720" style="enable-background:new 0 0 1280 720;" xml:space="preserve">
<style type="text/css">
	.st0{fill:#1A1A1A;}
	.st1{fill:#FFFFFF;}
	.st2{fill:rgba(255, 185, 54, 0.83);}
</style>
<rect class="st0" width="1280" height="720"/>
<path class="st1" d="M622.7,313.7c-2.6-1.3-5.6-1.2-8.1,0.3c-2.5,1.5-4,4.2-4,7v55.8c0,2.9,1.5,5.6,4,7c1.3,0.8,2.8,1.2,4.3,1.2  c1.3,0,2.6-0.3,3.8-0.9l53.6-28c2.7-1.4,4.4-4.2,4.4-7.3c0-3.1-1.7-5.9-4.4-7.3L622.7,313.7z"/>
<path class="st2" d="M757.7,275.6c-9.2-11-26.2-15.4-58.7-15.4H581c-33.2,0-50.5,4.8-59.7,16.4c-8.9,11.4-8.9,28.1-8.9,51.3v44.2  c0,44.9,10.6,67.7,68.7,67.7H699c28.2,0,43.8-3.9,53.9-13.6c10.4-9.9,14.8-26.1,14.8-54.1v-44.2  C767.6,303.5,766.9,286.6,757.7,275.6z M676.2,356.1l-53.6,28c-1.2,0.6-2.5,0.9-3.8,0.9c-1.5,0-3-0.4-4.3-1.2c-2.5-1.5-4-4.2-4-7  V321c0-2.9,1.5-5.5,4-7c2.5-1.5,5.5-1.6,8.1-0.3l53.6,27.8c2.7,1.4,4.4,4.2,4.4,7.3C680.7,351.9,679,354.7,676.2,356.1z"/>
</svg>